<?xml version="1.0" ?><!DOCTYPE svg  PUBLIC '-//W3C//DTD SVG 1.1//EN'  'http://www.w3.org/Graphics/SVG/1.1/DTD/svg11.dtd'><svg height="512px" style="enable-background:new 0 0 512 512;" version="1.1" viewBox="0 0 512 512" width="512px" xml:space="preserve" xmlns="http://www.w3.org/2000/svg" xmlns:xlink="http://www.w3.org/1999/xlink"><g id="drinks__x2C__glass__x2C__cheers__x2C__food__x2C_"><g><g><path d="M118.492,303.738c-6.996,0-14.047-0.701-20.956-2.082C39.785,289.974,2.239,233.367,13.83,175.469     L33.568,74.941c0.23-1.173,0.917-2.206,1.911-2.871c0.994-0.666,2.212-0.908,3.382-0.675l201.683,40.098     c1.173,0.233,2.206,0.924,2.868,1.92c0.663,0.996,0.902,2.214,0.665,3.387l-20.356,100.534     C213.718,267.395,169.462,303.738,118.492,303.738z M41.53,81.102L22.658,177.22c-10.622,53.058,23.766,104.914,76.653,115.612     c6.319,1.264,12.776,1.906,19.181,1.906c46.694,0,87.238-33.3,96.405-79.18l19.462-96.119L41.53,81.102z" style="fill:#221F20;"/></g><g><path d="M73.752,426.959c-0.289,0-0.581-0.028-0.875-0.086c-2.438-0.48-4.025-2.847-3.545-5.285     l24.672-125.215c0.48-2.438,2.847-4.021,5.285-3.545c2.438,0.48,4.025,2.847,3.545,5.285L78.162,423.328     C77.74,425.473,75.858,426.959,73.752,426.959z" style="fill:#221F20;"/></g><g><path d="M123.095,441.145c-0.289,0-0.583-0.028-0.877-0.086l-99.917-19.732     c-2.438-0.481-4.024-2.849-3.542-5.287c0.481-2.438,2.848-4.023,5.287-3.543l99.917,19.732c2.438,0.481,4.024,2.849,3.542,5.287     C127.081,439.659,125.2,441.145,123.095,441.145z" style="fill:#221F20;"/></g><g><path d="M229.195,170.366c-0.288,0-0.579-0.028-0.872-0.085L27.235,130.799     c-2.438-0.479-4.027-2.844-3.548-5.283c0.479-2.438,2.844-4.026,5.283-3.548l201.088,39.482c2.438,0.479,4.027,2.844,3.548,5.283     C233.185,168.878,231.303,170.366,229.195,170.366z" style="fill:#221F20;"/></g><g><path d="M393.561,303.738c-0.003,0-0.006,0-0.009,0c-50.975-0.005-95.232-36.348-105.236-86.416     l-19.744-100.548c-0.478-2.434,1.104-4.795,3.536-5.28l201.067-40.098c2.429-0.486,4.798,1.089,5.29,3.52l20.357,100.544     c10.989,58.112-26.842,114.698-84.319,126.197C407.597,303.037,400.55,303.738,393.561,303.738z M278.268,119.442l18.877,96.131     c9.162,45.861,49.709,79.161,96.408,79.165c0.002,0,0.006,0,0.008,0c6.398,0,12.85-0.642,19.177-1.907     c52.662-10.535,87.318-62.412,77.253-115.643l-19.456-96.089L278.268,119.442z" style="fill:#221F20;"/></g><g><path d="M438.286,426.959c-2.106,0-3.987-1.486-4.41-3.631l-24.671-125.215     c-0.48-2.438,1.106-4.805,3.545-5.285c2.443-0.479,4.805,1.107,5.285,3.545l24.671,125.215c0.48,2.438-1.106,4.805-3.545,5.285     C438.867,426.931,438.574,426.959,438.286,426.959z" style="fill:#221F20;"/></g><g><path d="M388.943,441.145c-2.107,0-3.989-1.488-4.411-3.635c-0.479-2.438,1.11-4.804,3.549-5.282     l100.535-19.732c2.438-0.48,4.804,1.111,5.282,3.55s-1.11,4.804-3.549,5.282L389.814,441.06     C389.522,441.117,389.23,441.145,388.943,441.145z" style="fill:#221F20;"/></g><g><path d="M282.842,170.366c-2.107,0-3.989-1.488-4.411-3.634c-0.479-2.439,1.11-4.804,3.549-5.283     l201.09-39.482c2.442-0.478,4.804,1.11,5.283,3.548c0.479,2.439-1.11,4.804-3.549,5.283l-201.09,39.482     C283.421,170.338,283.129,170.366,282.842,170.366z" style="fill:#221F20;"/></g></g></g><g id="Layer_1"/></svg>